<svg xmlns="http://www.w3.org/2000/svg" width="148.028" height="39" viewBox="0 0 148.028 39">
  <defs>
    <style>
      .cls-1 {
        fill: #a9894b;
      }
    </style>
  </defs>
  <g id="グループ_1" data-name="グループ 1" transform="translate(0.01)">
    <path id="パス_1" data-name="パス 1" class="cls-1" d="M27.283,54.2a1.1,1.1,0,0,1-1.171,1.14,2.419,2.419,0,0,1-.78-.129,10.718,10.718,0,0,0-4.13-.78,5.445,5.445,0,0,0-.717.032c-8.944.423-12.944,1.14-15.255,1.14A4.427,4.427,0,0,1,1.685,54.23a2.974,2.974,0,0,1-1.1-1.92c0-.455.325-.717.878-.717a3.291,3.291,0,0,1,1.007.259,10.79,10.79,0,0,0,5.2,1.042c2.437,0,6.017-.325,12.392-.78.815-.1,1.626-.227,2.5-.259.717-4.685.909-7.808,1.4-12.2a.831.831,0,0,0,.032-.259c0-.489-.259-.65-.682-.65C11.6,39.3,6.626,39.985,4.12,39.985c-1.822,0-2.374-.357-3.22-1.367A3.351,3.351,0,0,1-.01,36.569a.828.828,0,0,1,.878-.909,2.4,2.4,0,0,1,1.367.489c1.367.944,3.091,1.332,5.79,1.332,3.381,0,8.262-.584,15.937-1.4.423-.032.717-.032,1.042-.032,1.626,0,2.178.584,2.178,1.79a10.4,10.4,0,0,1-.227,1.79c-.552,2.6-1.4,7.35-2.308,12.521a6.08,6.08,0,0,1,1.234.423c1.042.455,1.465,1.14,1.465,1.692L27.28,54.2Z" transform="translate(0 -24.402)"/>
    <path id="パス_2" data-name="パス 2" class="cls-1" d="M132.7,35c0,.227.032.455.032.584,0,2.308-1.007,3.416-2.017,3.416s-2.147-1.332-2.049-3.741c.717-13.986,1.269-21.629,1.269-26.15,0-4.13-.455-5.563-1.822-6.7A2.251,2.251,0,0,1,127.24.944c0-.584.489-.944,1.269-.944a1.651,1.651,0,0,1,.682.1c2.7.65,3.189,1.951,3.189,3.056a2.906,2.906,0,0,1-.1.815c-.129,1.1-.259,2.374-.325,3.643-.1,2.308-.129,4.619-.129,6.961,0,0,.357,13.4.815,20.427h.066Z" transform="translate(-87.076)"/>
    <path id="パス_3" data-name="パス 3" class="cls-1" d="M229.915,37.793c-.552,0-.815-.227-.815-.455,0-.325.325-.584.944-.717,11.514-2.049,16.395-8.717,16.395-13.857a6.253,6.253,0,0,0-6.6-6.57c-3.545,0-8.392,2.081-14.116,7.612a7.239,7.239,0,0,1-4.976,2.081,5.971,5.971,0,0,1-3.091-.78c-1.951-1.14-2.636-2.049-2.636-2.6,0-.455.455-.682,1.007-.682a3.245,3.245,0,0,1,.552.032,11.414,11.414,0,0,0,2.6.423c1.594,0,3.154-.65,5.79-2.472,5.888-4.066,10.832-5.661,14.766-5.661,6.245,0,9.759,4.1,9.759,8.881,0,6.245-5.888,13.661-19.353,14.7h-.2l-.032.066Zm17.857-25.825a12.837,12.837,0,0,0-4.455-2.636c-.65-.227-.878-.552-.878-.909s.325-.682,1.007-.682c.227,0,.489-.032.717-.032a8.381,8.381,0,0,1,5.822,1.951,2.273,2.273,0,0,1,1.007,1.692,1.433,1.433,0,0,1-1.5,1.4,2.62,2.62,0,0,1-1.724-.78Zm3.839-3.287a11.275,11.275,0,0,0-4.1-2.049c-.65-.129-.944-.489-.944-.878,0-.325.325-.65.944-.717.455-.032.944-.1,1.4-.1a8.131,8.131,0,0,1,4.748,1.367,1.93,1.93,0,0,1,.909,1.594A1.385,1.385,0,0,1,253.1,9.3a2.385,2.385,0,0,1-1.5-.65v.032Z" transform="translate(-147.142 -3.38)"/>
    <path id="パス_4" data-name="パス 4" class="cls-1" d="M394.668,18.4c0,.552-.423,1.007-1.367,1.007a3.245,3.245,0,0,1-.552-.032,23.065,23.065,0,0,0-3.871-.325,29.632,29.632,0,0,0-5.2.489c-4.13,2.961-7.252,5.724-7.482,15.808v.815c0,6.049,1.4,8.423,6.213,8.423a17.27,17.27,0,0,0,2.178-.129,6.707,6.707,0,0,1,.78-.032c2.178,0,3.381,1.042,3.381,1.951,0,.584-.552,1.14-1.79,1.234a21.167,21.167,0,0,1-2.406.1c-8.881,0-10.441-4.553-10.441-12.392s2.766-12.067,5.528-14.7c-6.147,1.92-11.059,5.01-14.7,5.01a4.9,4.9,0,0,1-2.406-.584,3.539,3.539,0,0,1-2.049-2.7.863.863,0,0,1,.909-.944,2.68,2.68,0,0,1,1.042.325,6.129,6.129,0,0,0,2.829.584c6.049,0,15.58-5.92,26.346-5.92,1.951,0,3.091,1.171,3.091,2.049l-.032-.032Z" transform="translate(-246.679 -11.215)"/>
    <path id="パス_5" data-name="パス 5" class="cls-1" d="M153.552,53.99c4.619,0,9.759,2.343,9.759,5.433a1.88,1.88,0,0,1-1.951,2.147c-1.563,0-2.57-2.7-8.392-5.692-1.105-.584-.976-1.853.584-1.853v-.032Z" transform="translate(-104.185 -36.945)"/>
  </g>
</svg>
